<mxfile host="app.diagrams.net" modified="2023-10-04T14:10:34.208Z" agent="Mozilla/5.0 (Macintosh; Intel Mac OS X 10_15_7) AppleWebKit/537.36 (KHTML, like Gecko) Chrome/117.0.0.0 Safari/537.36" version="22.0.2" etag="XdKqdDvhVSevtVAo7Sjx" type="github">
  <diagram name="第 1 页" id="oW00P3V7mnh5LHBCPDzu">
    <mxGraphModel>
      <root>
        <mxCell id="0" />
        <mxCell id="1" parent="0" />
      </root>
    </mxGraphModel>
  </diagram>
</mxfile>
